<?xml version="1.0" encoding="utf-8"?>
<!-- Generator: Adobe Illustrator 16.0.0, SVG Export Plug-In . SVG Version: 6.00 Build 0)  -->
<!DOCTYPE svg PUBLIC "-//W3C//DTD SVG 1.1//EN" "http://www.w3.org/Graphics/SVG/1.1/DTD/svg11.dtd">
<svg version="1.1" id="Layer_1" xmlns="http://www.w3.org/2000/svg" xmlns:xlink="http://www.w3.org/1999/xlink" x="0px" y="0px"
	 width="560px" height="560px" viewBox="200 0 560 560" enable-background="new 200 0 560 560" xml:space="preserve">
<g>
	<path fill="#00D632" d="M564.875,0c56,0,84,0,114.625,9.625c32.907,12.038,58.837,37.967,70.875,70.875
		C760,111.125,760,139.125,760,195.212V364.7c0,56.175,0,84.35-9.625,114.625c-12.038,32.907-37.968,58.837-70.875,70.875
		c-30.625,9.8-58.625,9.8-114.625,9.8h-169.75c-56.175,0-84.35,0-114.625-9.625c-32.908-12.038-58.837-37.968-70.875-70.875
		C200,448.875,200,420.875,200,364.787V195.125c0-56.175,0-84.35,9.625-114.625c12.038-32.908,37.967-58.837,70.875-70.875
		C311.125,0,339.125,0,395.125,0H564.875z"/>
	<path fill="#FFFFFF" d="M571.612,208.25c4.375,4.375,11.638,4.375,15.75,0l21.875-22.75c4.638-4.375,4.375-12.25-0.524-16.975
		c-17.189-14.972-37.174-26.392-58.801-33.6l6.913-33.25c1.487-7.262-3.938-14.087-11.2-14.087h-42.35
		c-5.456,0.059-10.126,3.926-11.2,9.275l-6.125,29.575c-56.351,2.888-104.125,31.5-104.125,90.125c0,50.75,39.462,72.537,81.2,87.5
		c39.462,15.05,60.375,20.65,60.375,41.825c0,21.787-20.825,34.563-51.625,34.563c-28,0-57.4-9.362-80.15-32.2
		c-4.438-4.446-11.641-4.452-16.086-0.014c-0.005,0.005-0.009,0.009-0.014,0.014L351.9,371.875c-4.627,4.644-4.627,12.156,0,16.8
		c18.375,18.112,41.65,31.237,68.18,38.5l-6.475,31.237c-1.488,7.263,3.85,14,11.112,14.088l42.438,0.35
		c5.521,0.025,10.287-3.861,11.375-9.274l6.125-29.663C552.45,429.362,593.75,392,593.75,337.487c0-50.225-41.125-71.4-91-88.637
		c-28.525-10.587-53.2-17.85-53.2-39.638c0-21.175,23.013-29.575,46.112-29.575c29.4,0,57.663,12.162,76.125,28.787L571.612,208.25z
		"/>
</g>
</svg>
