<?xml version="1.0" encoding="utf-8"?>
<!-- Generator: Adobe Illustrator 16.0.0, SVG Export Plug-In . SVG Version: 6.00 Build 0)  -->
<!DOCTYPE svg PUBLIC "-//W3C//DTD SVG 1.1//EN" "http://www.w3.org/Graphics/SVG/1.1/DTD/svg11.dtd">
<svg version="1.1" id="Layer_1" xmlns="http://www.w3.org/2000/svg" xmlns:xlink="http://www.w3.org/1999/xlink" x="0px" y="0px"
	 width="737px" height="305px" viewBox="0 0 737 305" enable-background="new 0 0 737 305" xml:space="preserve">
<g>
	<g>
		<path d="M32,147c28.672-1.713,53.383,22.177,82.595,15.786c7.558-1.654,4.352-13.222-3.19-11.571
			c-12.932,2.829-26.395-2.692-38.371-7.019C59.884,139.444,46.237,134.149,32,135C24.312,135.459,24.267,147.462,32,147L32,147z"/>
	</g>
</g>
<g>
	<g>
		<path d="M68.819,93.972c-4.199,8.921-15.199,14.219-23.112,19.286c-7.958,5.095-18.784,11.134-21.456,20.95
			c-1.321,4.85,0.676,10.753,1.512,15.551c1.228,7.045,2.65,14.054,4.474,20.971c3.002,11.391,7.408,24.653,17.735,31.452
			c6.485,4.269,12.489-6.127,6.057-10.361c-8.023-5.282-10.718-18.328-12.907-26.928c-1.539-6.044-2.701-12.184-3.788-18.323
			c-0.478-2.7-0.923-5.405-1.373-8.11c-0.237-1.427-0.349-0.984,0.245-2.146c1.667-3.258,5.224-5.663,8.12-7.739
			c4.314-3.093,8.869-5.85,13.327-8.729c7.915-5.11,17.366-10.973,21.528-19.816C82.456,93.069,72.113,86.974,68.819,93.972
			L68.819,93.972z"/>
	</g>
</g>
<g>
	<g>
		<path d="M242.681,79.972c-3.781-8.295-9.602-17.085-19.113-19.176c-8.229-1.81-15.756,2.42-21.929,7.411
			c-13.09,10.584-22.688,27.565-29.483,42.739c-7.09,15.831-12.487,32.491-15.895,49.499c-3.601,17.971-5.174,37.318,0.077,55.13
			c5.235,17.761,18.466,30.134,36.136,35.192c19.144,5.481,38.732-1.308,54.205-12.765c30.325-22.454,50.296-58.828,62.679-93.787
			c6.101-17.222,11.231-35.389,11.743-53.758c0.433-15.538-5.507-36.522-23.975-38.322c-16.282-1.586-24.224,18.773-28.319,31.062
			c-5.34,16.022-7.789,33.015-9.937,49.702c-2.953,22.942-4.059,46.204-2.221,69.283c0.899,11.281,2.637,22.524,5.326,33.517
			c2.408,9.842,5.904,19.937,13.394,27.109c5.627,5.389,13.37,7.336,20.842,5.226c9.017-2.546,15.071-10.538,20.248-17.772
			c5.338-7.459,9.87-15.552,13.558-23.943c3.713-8.452,6.986-17.951,5.984-27.318c-0.595-5.562-8.003-8.658-11.181-3.028
			c-5.959,10.556-6.615,23.094-7.101,34.939c-0.324,7.918-1.03,17.054,1.835,24.607c3.8,10.019,13.361,8.283,19.688,1.724
			c2.936-3.043,5.151-6.978,7.432-10.508c8.031-12.435,15.834-25.103,25.063-36.703c3.834-4.82,8.587-10.4,13.201-13.685
			c0.993-0.708,2.05-1.315,3.141-1.855c-1.205,0.597,2.781-0.525,0.841-0.313c0.362-0.04,1.813,0.099,0.178-0.136
			c0.364,0.052,1.597,0.571,0.217-0.058c0.299,0.136,1.342,0.992,0.302,0.109c0.392,0.333,0.718,0.737,1.042,1.132
			c0-2.829,0-5.657,0-8.485c-7.393,9.49-18.583,12.823-28.805,18.094c-9.258,4.773-13.768,15.011-14.556,24.914
			c-1.4,17.586,12.521,36.562,31.227,33.508c15.856-2.589,28.173-19.696,36.61-31.88c9.899-14.295,17.403-29.879,23.26-46.226
			c5.838-16.298,8.691-33.015,10.238-50.195c0.885-9.831,2.958-24.64-7.105-30.636c-2.105-1.255-5.642-1.138-7.271,0.938
			c-13.598,17.325-8.504,44.002-6.448,64.204c1.433,14.083,1.823,28.326,1.717,42.474c-0.051,6.731-0.479,13.436-0.777,20.157
			c-0.115,2.588-0.217,5.2-0.598,7.765c-0.166,1.117-0.433,2.211-0.717,3.303c-0.194,0.744-1.521,2.43-0.463,1.66
			c2.736,0.718,5.473,1.435,8.209,2.152c0.41,0.897-0.569-1.792-0.718-2.357c-0.225-0.851-0.569-2.82-0.597-3.047
			c-0.415-3.465-0.376-6.982-0.213-10.463c0.376-8.033,1.949-15.975,3.947-23.747c3.968-15.442,10.217-32.17,21.557-43.779
			c4.096-4.192,8.823-6.935,14.059-6.788c4.519,0.127,7.43,2.64,8.52,5.908c3.658,10.971-3.965,26.22-10.132,36.116
			c-3.904,6.265-8.653,11.958-14.213,16.821c-4.11,3.595-9.817,6.852-14.259,7.221c-2.276,0.189-4.084-0.13-5.815-0.979
			c-3.707-1.818-5.708-4.645-3.815-8.651c5-10.584,20.769-7.604,29.131-3.665c10.211,4.81,15.662,12.6,20.18,22.492
			c3.991,8.739,8.091,17.54,16.267,23.125c8.281,5.657,19.354,3.589,27.433-1.233c8.767-5.233,15.143-14.216,19.911-23.027
			c4.081-7.541,7.292-15.878,8.864-24.323c1.407-7.563-10.157-10.792-11.571-3.19c-2.961,15.915-13.022,39.667-30.86,43.105
			c-9.08,1.75-14.066-8.658-17.246-15.238c-4.45-9.206-7.94-17.732-15.825-24.652c-15.711-13.788-50.521-20.995-58.452,5.087
			c-3.099,10.19,4.31,18.44,13.192,21.948c6.113,2.414,13.091,1.084,18.921-1.404c13.565-5.791,23.819-18.937,30.921-31.408
			c6.69-11.749,12.675-27.073,9.115-40.74c-3.61-13.856-19.376-18.202-31.514-13.015c-14.14,6.042-22.772,21.96-28.497,35.371
			c-5.282,12.375-9.002,25.408-10.823,38.746c-1.426,10.449-2.325,21.973,2.172,31.825c1.265,2.773,5.749,3.942,8.209,2.152
			c8.493-6.178,7.238-18.355,7.972-27.681c1.326-16.867,0.514-34.04-0.557-50.896c-0.693-10.919-2.326-21.745-2.773-32.689
			c-0.378-9.267-1.049-22.372,5.073-30.172c-2.424,0.313-4.847,0.625-7.271,0.938c2.334,1.391,1.866,7.268,1.868,9.566
			c0.003,4.704-0.633,9.389-0.971,14.075c-1.076,14.905-4.64,29.556-9.544,43.639c-5.601,16.083-13.486,31.168-23.263,45.1
			c-6.426,9.155-19.843,27.521-32.328,24.354c-7.359-1.867-11.42-11.322-11.939-18.182c-0.328-4.328,0.58-8.557,2.703-12.331
			c2.553-4.539,6.932-6.139,11.454-8.072c9.336-3.991,19.35-9.459,25.695-17.604c2.167-2.782,2.28-5.711,0-8.485
			c-8.048-9.792-20.167-1.73-27.058,4.888c-10.632,10.211-18.925,23.112-26.96,35.376c-3.357,5.122-6.623,10.304-9.959,15.44
			c-1.13,1.74-2.273,3.473-3.474,5.166c-1.196,1.688,0.166-0.111-0.603,0.786c-0.667,0.78-1.739,2.227-2.645,2.6
			c1.693-0.697,2.997,2.17,2.403,0.604c-0.566-1.492-0.823-3.127-0.993-4.707c-0.417-3.87-0.462-7.854-0.301-11.741
			c0.455-10.959,0.069-23.282,5.625-33.125c-3.727-1.009-7.454-2.019-11.181-3.028c1.191,11.135-4.374,22.306-9.541,31.81
			c-2.515,4.626-5.342,9.086-8.363,13.396c-3.128,4.463-6.838,9.7-12.061,11.9c-9.822,4.14-15.717-8.216-18.246-15.597
			c-4.567-13.326-6.389-27.809-7.404-41.791c-2.008-27.667,0.455-55.699,5.047-82.996c2.366-14.062,5.342-28.8,11.962-41.54
			c1.466-2.821,3.166-5.455,5.414-7.709c1.861-1.866,3.481-2.483,5.621-2.406c5.591,0.2,9.844,7.627,11.313,12.794
			c4.793,16.853-1.328,36.97-6.286,53.1c-10.602,34.486-28.313,68.974-55.508,93.273c-13.765,12.299-31.65,20.832-50.286,15.961
			c-17.17-4.487-26.563-17.879-29.62-34.725c-3.227-17.785,0.332-36.851,4.863-54.078c4.061-15.443,9.588-30.59,17.292-44.595
			c5.753-10.459,12.624-21.965,22.229-29.366c3.078-2.373,7.058-4.701,10.706-3.899c5.776,1.27,9.021,8.745,11.186,13.496
			C235.525,93.062,245.866,86.958,242.681,79.972L242.681,79.972z"/>
	</g>
</g>
<g>
	<g>
		<path d="M335.5,169.5c7.738,0,7.738-12,0-12S327.762,169.5,335.5,169.5L335.5,169.5z"/>
	</g>
</g>
<g>
	<g>
		<path d="M561.528,177.681c6.846-4.771,11.155-12.781,16.37-19.138c1.888-2.302,5.075-6.152,7.266-6.895
			c-1.277,0.434-2.267-2.242-1.445-0.196c0.88,2.194,1.305,4.675,1.604,7.009c3.365,26.23-8.325,52.986,1.393,78.634
			c2.302,6.077,11.825,5.552,11.785-1.595c-0.106-19.012-3.578-38.187,2.667-56.633c3.468-10.241,7.29-23.07,14.931-31.029
			c0.9-0.938,0.572-0.57,1.146-0.916c-0.656,0.228-0.67,0.244-0.04,0.049c-0.718,0.21-1.283,0.049-1.931-0.254
			c-0.368-0.172-0.091-0.359,0.224,0.65c0.462,1.481,0.487,3.04,0.555,4.575c0.331,7.536-0.51,15.391-1.227,22.896
			c-1.133,11.861-2.249,23.88-3.792,35.68c-1.17,8.947-1.893,18.896,2.787,27.011c3.552,6.16,12.215,1.848,10.966-4.623
			c-3.566-18.488-3.238-37.795,1.551-56.029c3.209-12.216,10.09-28.97,22.192-34.696c-2.736-0.717-5.473-1.435-8.209-2.152
			c1.622,3.59,0.911,8.43,0.567,12.196c-0.512,5.608-1.773,11.16-2.879,16.673c-1.688,8.419-3.087,16.503-5.093,24.897
			c-2.228,9.324-4.533,19.647-2.057,29.144c2.071,7.943,9.838,13.036,17.919,12.113c17.241-1.967,29.907-21.394,38.191-34.792
			c3.827-6.189,7.441-12.762,9.816-19.665c1.659-4.821,3.334-9.822,2.648-14.993c-0.773-5.83-5.192-11.042-11.434-11.174
			c-13.155-0.278-21.07,13.284-25.244,23.884c-4.703,11.947-6.882,26.308-3.89,38.92c3.007,12.679,14.308,20.437,27.016,17.723
			c11.338-2.422,21.293-11.966,28.86-20.213c5.221-5.689-3.242-14.198-8.484-8.485c-6.209,6.766-13.547,14.015-22.507,16.846
			c-10.015,3.163-13.831-7.697-14.18-15.685c-0.459-10.517,2.299-21.837,7.169-31.136c2.053-3.919,4.784-7.131,8.665-9.325
			c4.762-2.691,0.758,7.815,0.15,9.524c-5.037,14.173-15.165,29.438-26.54,40.087c-4.019,3.763-10.282,8.424-14.987,5.75
			c-2.364-1.344-2.194-5.771-2.213-8.019c-0.042-5.049,1.042-10.065,2.128-14.967c2.199-9.918,4.142-19.782,6.136-29.74
			c2.273-11.347,5.591-24.578,0.602-35.621c-1.428-3.161-5.505-3.432-8.209-2.152c-14.162,6.7-22.17,24.514-26.757,38.585
			c-6.806,20.873-6.622,44.331-2.5,65.69c3.655-1.541,7.311-3.082,10.966-4.623c-4.786-8.301-0.997-21.211-0.317-30.219
			c0.876-11.594,2.6-23.107,3.521-34.698c0.625-7.875,2.36-18.026-1.472-25.364c-3.077-5.892-10.163-7.856-15.665-4.019
			c-5.348,3.729-8.644,10.045-11.46,15.747c-3.188,6.454-5.813,13.212-8.229,19.987c-7.333,20.575-4.179,41.276-4.059,62.594
			c3.929-0.531,7.857-1.063,11.785-1.595c-10.518-27.764,6.476-57.787-2.995-85.645c-1.522-4.478-4.85-8.54-9.955-8.6
			c-4.717-0.055-8.543,2.794-11.821,5.886c-3.97,3.746-7.192,8.349-10.467,12.688c-1.345,1.783-2.684,3.567-4.089,5.304
			c-0.716,0.885-1.47,1.735-2.244,2.569c-0.197,0.211-2.031,1.761-1.242,1.211C549.173,171.709,555.162,182.118,561.528,177.681
			L561.528,177.681z"/>
	</g>
</g>
</svg>
