<?xml version="1.0" encoding="utf-8"?>
<!-- Generator: Adobe Illustrator 16.0.0, SVG Export Plug-In . SVG Version: 6.00 Build 0)  -->
<!DOCTYPE svg PUBLIC "-//W3C//DTD SVG 1.1//EN" "http://www.w3.org/Graphics/SVG/1.1/DTD/svg11.dtd">
<svg version="1.1" xmlns="http://www.w3.org/2000/svg" xmlns:xlink="http://www.w3.org/1999/xlink" x="0px" y="0px"
	 width="380.592px" height="380.591px" viewBox="0 0 380.592 380.591" enable-background="new 0 0 380.592 380.591"
	 xml:space="preserve">
<g id="Layer_1" display="none">
</g>
<g id="Layer_3">
	<g id="XMLID_1_">
		<g>
			<polygon points="307.696,143.308 356.137,193.888 307.477,240.488 			"/>
			<polygon points="307.856,73.268 307.696,143.308 240.486,73.118 			"/>
			<polygon points="307.477,240.488 307.326,307.858 237.286,307.698 			"/>
			<polygon points="193.887,24.458 240.486,73.118 143.307,72.898 			"/>
			<polygon points="237.286,307.698 186.707,356.138 140.106,307.478 			"/>
			<polygon points="143.307,72.898 73.116,140.108 73.267,72.738 			"/>
			<polygon points="72.896,237.288 140.106,307.478 72.736,307.318 			"/>
			<polygon points="73.116,140.108 72.896,237.288 24.457,186.708 			"/>
		</g>
		<g>
			<path fill="none" stroke="#000000" stroke-width="10" stroke-miterlimit="10" d="M190.196,7.188
				c-101.17,0-183.2,82.02-183.2,183.2c0,101.18,82.03,183.2,183.2,183.2c101.18,0,183.2-82.021,183.2-183.2
				C373.396,89.208,291.376,7.188,190.196,7.188z"/>
			<polyline fill="none" stroke="#000000" stroke-width="10" stroke-miterlimit="10" points="72.896,237.288 24.457,186.708 
				73.116,140.108 			"/>
			<polyline fill="none" stroke="#000000" stroke-width="10" stroke-miterlimit="10" points="143.307,72.898 193.887,24.458 
				240.486,73.118 307.696,143.308 356.137,193.888 307.477,240.488 237.286,307.698 186.707,356.138 140.106,307.478 
				72.896,237.288 			"/>
			<polyline fill="none" stroke="#000000" stroke-width="10" stroke-miterlimit="10" points="73.116,140.108 73.267,72.738 
				143.307,72.898 			"/>
			<polygon fill="none" stroke="#000000" stroke-width="10" stroke-miterlimit="10" points="240.486,73.118 307.856,73.268 
				307.696,143.308 307.477,240.488 307.326,307.858 237.286,307.698 140.106,307.478 72.736,307.318 72.896,237.288 
				73.116,140.108 143.307,72.898 			"/>
		</g>
	</g>
	<g>
		<g>
			<g>
				<path fill="#202020" d="M179.114,144.058c0.405,0.008,0.783-0.67,1.009,0.353c0.504,3.234-0.742,5.869-0.232,9.085l0.661,0.205
					c-0.187,2.493-0.439,5.112-0.667,7.739c0.253,4.775,0.504,9.525,0.755,14.259c0.24-0.119,0.461-0.175,0.542,0.283
					c0.073,0.956,0.043,2.097-0.018,3.339c-0.053,1.258-0.226,2.466-0.308,3.775c0.021,0.389,0.046,0.735,0.05,1.263
					c0.12,0.385,0.343,0.496,0.48,0.565c-0.114,1.487-0.239,2.8-0.301,3.975c0.265,3.94,0.783,7.622,1.334,11.268
					c0.55,3.654,1.163,7.234,1.738,10.837c1.133,7.176,2.27,14.459,2.209,21.722l0.137,2.316c-0.001,0.752-0.027,1.497-0.05,2.254
					c0.006,0.774-0.141,1.459-0.246,2.181c-0.061,0.358-0.121,0.716-0.181,1.071c-0.1,0.434-0.199,0.865-0.297,1.294
					c-0.686,2.532-1.306,5.171-1.938,7.833c-0.629,2.651-1.229,5.271-1.66,7.553c2.36-0.292,1.663,10.969,4.334,9.123
					c-0.535,3.014-1.319,7.559-0.712,7.894c1.805,1.027,3.727,3.641,3.518,12.038c-0.135,1.633-0.637,3.668-1.129,5.51
					c-0.465,1.793-1.034,3.586-1.001,4.282c0.035,0.469,0.203,0.477,0.439,0.254c0.236-0.227,0.559-0.832,0.874-1.396
					c0.66-1.2,1.174-2.158,1.298-1.157l0.555-2.399l0.475-2.291c0.313-1.526,0.581-2.999,0.856-4.489
					c0.529-2.95,1.018-5.872,1.48-8.762c0.899-5.714,1.795-11.404,2.691-17.1c0.46-2.793,0.939-5.567,1.476-8.181l0.407-1.934
					l0.432-1.757c0.071-0.331,0.14-0.487,0.205-0.716l0.188-0.646l0.832-2.69c0.141-0.478,0.297-0.966,0.417-1.437l0.288-1.372
					c0.182-0.91,0.394-1.847,0.533-2.738c0.213-1.734,0.51-3.544,0.588-5.201l0.181-2.537l0.074-2.464
					c0.071-1.662,0.039-3.247,0.042-4.861c-0.264-2.178-0.625-7.436-1.242-13.971c-0.548-6.499-1.439-14.593-1.191-21.693
					c0.041-1.014,0.082-2.03,0.124-3.047c0.038-1.129,0.106-2.303,0.117-3.392c0.007-2.163,0.055-4.352,0.006-6.417
					c-0.023-2.09-0.054-4.139-0.115-6.105c-0.056-1.967-0.111-3.88-0.164-5.719c-0.234-7.327-0.442-13.376-0.459-16.889
					l-0.077-1.271c-0.176-7.658-0.624-16.838-1.502-23.172c-0.562-2.893-1.136-5.853-1.707-8.797
					c-0.417,1.347-0.832,2.601-1.238,3.693c0.126-2.999,0.261-5.982-0.057-7.13c-0.326-3.19-0.764-3.911-1.408-3.555
					c-0.672,0.346-1.411,1.83-2.277,3.028c-0.792,1.764-1.7-0.744-2.567,2.07c0.158-2.056,0.237-3.085,0.396-5.15
					c-0.653-0.282-0.046,6.371-1.033,4.885c0.183-0.991,0.208-2.047,0.207-3.118c-0.002-0.535-0.003-1.074-0.005-1.607
					c0.022-0.536,0.06-1.068,0.121-1.587c-1.045,0.652-0.806,7.174-1.671,6.816c-0.125-1.154,1.489-5.773,0.506-6.274
					c-0.101-0.051-0.227,0.453-0.313,1.097c-0.076,0.641-0.135,1.426-0.174,1.948c0.008-0.809-0.006-1.571-0.017-2.281
					c0.01-0.715,0.004-1.373-0.018-1.962c-0.043-1.178-0.149-2.08-0.322-2.596c-0.323-1.038-0.97-0.525-1.859,2.457
					c0.144-1.065,0.335-2.299,0.655-3.612c0.314-1.311,0.611-2.631,0.729-3.79c-0.007,0.001-0.013,0.01-0.02,0.014
					c-0.228,1.132-0.774,3.071-0.96,4.132c0.233-1.299,0.467-2.604,0.701-3.906c-0.184,0.175-0.371,0.38-0.56,0.599
					c-0.294,0.956-0.563,1.929-0.746,2.956c0.156-0.872,0.312-1.745,0.468-2.622c-0.457,0.592-0.92,1.295-1.373,2.09
					c-0.32,0.779-0.593,1.513-0.857,2.219c-0.271,0.714-0.533,1.405-0.778,2.05c-0.5,1.313-0.836,2.432-0.888,3.241
					c-0.705,6.613-0.937,13.017-1.013,19.37C178.808,131.556,178.91,137.843,179.114,144.058z"/>
			</g>
		</g>
	</g>
	<g>
		<g>
			<g>
				<path fill="#202020" d="M165.613,134.015c0.333,0.229,0.915,0.062,0.7,0.756c-0.866,2.071-2.96,2.807-3.842,4.795l0.452,0.493
					c-0.581,0.584-1.196,1.219-1.803,1.767c-0.599,0.537-1.245,1.155-1.738,1.502l-1.888,2.586l-0.271,0.386l-0.207,0.335
					l-0.411,0.671l-0.812,1.345c-0.489,0.858-0.917,1.669-1.37,2.508l-1.219,2.391c0.252,0.04,0.464,0.112,0.363,0.46
					c-0.151,0.347-0.323,0.679-0.528,1.037c-0.105,0.176-0.214,0.357-0.326,0.544c-0.026,0.032-0.045,0.048-0.071,0.07
					c-0.102,0.089-0.216,0.13-0.297,0.201c0.009,0.06,0.016,0.122,0.019,0.184c0.075,0.148,0.211,0.363,0.296,0.496
					c-0.101,0.112-0.208,0.168-0.318,0.182c-0.034,0.337-0.125,0.714-0.306,1.077c-0.176,0.363-0.474,0.684-0.804,0.821
					c-0.662,0.266-1.327,0.059-2.054-0.387c-0.365-0.227-0.741-0.53-1.142-0.903l-0.304-0.293c-0.056-0.062-0.09-0.079-0.166-0.18
					l-0.267-0.386c-0.354-0.534-0.708-1.069-1.064-1.606c-1.426-2.188-2.827-4.539-4.408-7.033c-0.803-0.993-1.634-2.014-2.568-3.07
					c-0.848-0.87-1.654-1.748-2.378-2.648c-1.005-1.376-1.989-3.038-2.935-4.715c-0.925-1.693-1.938-3.305-2.813-4.709
					c-1.646,1.686-7.037-4.308-8.061-1.653c-1.209-1.809-3.027-4.527-3.658-4.29c-1.91,0.699-4.657,0.667-8.997-3.394
					c-1.542-1.694-2.894-5.017-3.682-5.442c-1.243-0.667,0.582,3.2-0.661,2.533c2.297,3.542,4.693,7.029,7.01,10.378
					c1.18,1.676,2.357,3.349,3.533,5.021l3.426,4.971l1.727,2.479c0.566,0.83,1.092,1.673,1.641,2.51
					c1.088,1.678,2.178,3.359,3.271,5.045l0.752,1.174c0.14,0.218,0.316,0.541,0.494,0.865c0.369,0.696,0.778,1.545,1.189,2.419
					c0.875,1.925,1.754,3.859,2.637,5.803c0.224,0.328,0.49,0.77,0.831,1.346c0.167,0.288,0.349,0.603,0.546,0.943
					c0.108,0.19,0.22,0.387,0.336,0.59c0.18,0.328,0.366,0.667,0.557,1.017c1.527,2.768,3.589,6.154,6.394,9.03
					c2.848,2.771,6.333,4.916,10.853,4.996c1.118,0.038,2.229-0.167,3.312-0.404c1.059-0.311,2.09-0.69,3.068-1.214
					c0.476-0.295,0.975-0.541,1.435-0.879l1.349-1.096l0.676-0.55c0.225-0.186,0.459-0.345,0.654-0.618l1.228-1.479l1.229-1.481
					c0.386-0.537,0.737-1.136,1.107-1.701c0.718-1.157,1.492-2.263,2.162-3.453c0.856-1.495,1.709-2.982,2.549-4.447
					c0.341-0.583,0.68-1.163,1.015-1.737c0.328-0.544,0.667-1.146,0.966-1.583c0.299-0.45,0.622-0.983,0.886-1.349
					c0.258-0.322,0.441-0.579,0.722-0.959c0.508-0.632,1.041-1.285,1.489-1.87c0.413-0.557,0.815-1.101,1.207-1.629
					c0.728-1.027,1.413-1.994,2.047-2.889c1.211-1.755,2.226-3.224,2.972-4.304l0.488-0.813c3.14-4.721,6.452-10.737,7.963-15.41
					c0.572-2.207,1.032-4.502,1.442-6.829c-0.803,0.78-1.564,1.486-2.285,2.042c1.073-1.995,2.115-4.034,2.09-5.036
					c0.574-2.436,0.243-3.181-0.432-3.103c-0.671,0.082-1.761,0.857-2.852,1.359c-1.16,0.896-1.396-1.12-2.864,0.398
					c0.624-1.288,0.947-1.933,1.536-3.237c-0.497-0.403-1.493,4.168-2.053,2.811c0.782-1.144,1.089-2.705,1.604-3.986
					c-0.944,0.118-2.24,4.336-2.966,3.766c0.146-0.754,2.73-3.12,1.784-3.782c-0.174-0.13-0.716,1.12-1.04,1.752
					c0.385-1.016,0.59-1.922,0.713-2.666c0.143-0.754,0.104-1.305-0.027-1.639c-0.126-0.337-0.351-0.459-0.676-0.331
					c-0.333,0.134-0.712,0.477-1.351,1.226c0.538-1.161,1.393-2.575,1.391-3.275l-0.019,0.003c-0.196,0.435-0.536,1.19-0.717,1.591
					l0.171-0.471l0.087-0.236l0.038-0.169c0.049-0.219,0.108-0.436,0.178-0.652c-0.162,0.047-0.331,0.097-0.506,0.148
					c-0.103,0.14-0.193,0.277-0.262,0.419c-0.063,0.135-0.216,0.423-0.29,0.642l0.217-0.596c0.026-0.132,0.057-0.262,0.092-0.392
					c-0.399,0.136-0.717,0.192-1.186,0.526c-0.285,0.296-0.581,0.574-0.866,0.832c-0.328,0.296-0.645,0.583-0.94,0.851
					c-0.585,0.538-1.053,1.007-1.282,1.455c-1.802,3.438-3.966,7.077-6.158,10.667C170.169,126.86,167.894,130.471,165.613,134.015z
					"/>
			</g>
		</g>
	</g>
	<g>
		<g>
			<g>
				<path fill="#202020" d="M194.065,150.196c0.377-0.148,0.544-0.769,1.027-0.135c1.344,2.075,0.927,4.432,2.322,6.516l0.667-0.116
					c0.563,1.849,1.084,3.81,1.746,5.805c0.449,0.845,0.877,1.68,1.37,2.528l1.678,2.946c0.876,1.458,1.858,2.931,2.776,4.375
					c0.475,0.709,0.911,1.476,1.414,2.127l1.54,1.885c0.032-0.354,0.115-0.614,0.547-0.19c0.31,0.355,0.631,0.749,0.967,1.177
					c0.167,0.215,0.34,0.437,0.517,0.665c0.191,0.206,0.389,0.417,0.591,0.635c1.5,0.365,3.234,0.786,5.004,1.217
					c0.347,0.044,0.693,0.088,1.034,0.132c0.274-0.051,0.355-0.205,0.402-0.301c0.929,0.266,1.625,0.515,2.128,0.728
					c0.151,0.032,0.235,0.059,0.361,0.095c0.427,0.441,1.99,0.007,3.156-0.254c0.307-0.083,0.616-0.168,0.928-0.253
					c0.164-0.044,0.287-0.096,0.486-0.139l0.726-0.116c0.966-0.162,1.928-0.354,2.89-0.579c1.32-2.757,2.663-5.564,4.029-8.419
					c0.651-1.375,1.289-2.734,1.972-4.083l0.246-0.499l0.132-0.302l0.266-0.607l0.536-1.223c0.702-1.663,1.532-3.19,2.321-4.847
					c0.826-1.606,1.76-3.143,2.675-4.771c1.091-2.045,2.083-4.297,3.617-5.973c0.567-0.616,1.207-1.243,1.884-1.87
					c0.689-0.63,1.477-1.273,2.236-1.9c1.536-1.278,3.088-2.41,4.384-3.488c-0.949-0.724-0.022-2.6,0.836-4.409
					c0.834-1.828,1.688-3.497,0.294-3.921c0.945-0.678,2.101-1.553,3.037-2.288c0.944-0.726,1.621-1.372,1.511-1.692
					c-0.629-1.901-0.587-4.932,4.817-9.277c2.173-1.603,6.456-2.438,7.16-3.201c0.249-0.265,0.164-0.409-0.089-0.492
					c-0.254-0.081-0.748-0.05-1.221-0.035c-0.955,0.039-1.933,0.091-1.339-0.511c-4.958,1.874-9.287,4.42-13.304,7.118
					c-4.049,2.697-7.623,5.675-11.087,8.663l-2.55,2.261l-2.384,2.197c-0.746,0.676-1.701,1.601-2.592,2.458
					c-0.897,0.87-1.804,1.729-2.689,2.616c-3.393,3.754-6.6,7.708-9.225,11.765c-0.227,0.479-0.59,1.15-1.064,1.985
					c-0.429,0.832-0.962,1.826-1.582,2.956c-0.077,0.141-0.156,0.285-0.236,0.43c-0.042,0.083-0.004,0.037-0.01,0.062
					c0.009,0.017,0.017,0.035,0.022,0.055c-0.002,0.064-0.009,0.136-0.021,0.213c-0.023,0.156-0.069,0.338-0.13,0.546
					c-0.058,0.192-0.13,0.405-0.218,0.632l-0.141,0.351c-0.022,0.038-0.056,0.17-0.071,0.133c-0.016-0.035-0.03-0.071-0.056-0.106
					c-0.146-0.223-0.437-0.424-0.659-0.703c-0.219-0.267-0.385-0.517-0.589-0.873c-0.478-0.905-0.945-1.79-1.398-2.648
					c-0.49-0.994-0.965-1.957-1.42-2.88c-1.795-3.731-3.178-6.938-3.979-8.943l-0.401-0.838c-2.155-5.138-4.96-11.354-7.583-15.438
					c-1.329-1.822-2.786-3.635-4.204-5.462c0.035,1.101,0.037,2.134,0.005,3.043c-0.805-2.12-1.604-4.239-2.314-4.894
					c-2.708-4.123-2.766-1.157-3.532,1.159c-0.14,1.501-1.793,0.208-1.66,2.42c-0.532-1.419-0.798-2.131-1.332-3.557
					c-0.672,0.081,2.045,4.22,0.662,3.638c-0.313-1.449-1.29-2.822-1.82-4.244c-0.63,0.816,1.639,5.01,0.748,5.117
					c-0.497-0.687-0.482-4.405-1.602-4.275c-0.224,0.026,0.31,1.451,0.576,2.164c-2.045-4.223-3.954-6.237-3.482-1.83
					c-0.519-1.393-0.861-3.507-1.575-4.903c-0.005,0.004-0.007,0.012-0.012,0.018c0.254,0.739,0.54,2.07,0.792,2.747l-0.927-2.495
					c-0.091,0.187-0.172,0.389-0.25,0.6c0.12,0.665,0.265,1.323,0.505,1.971l-0.615-1.656c-0.167,0.54-0.298,1.138-0.39,1.773
					c0.124,2.215-0.085,4.475,0.318,5.548C187.121,132.81,190.325,141.585,194.065,150.196z"/>
			</g>
		</g>
	</g>
	<g>
		<g>
			<g>
				<path fill="#202020" d="M152.188,206.384c0.377,0.146,0.847,0.036,0.883,0.481c-0.078,1.333-1.703,1.833-1.778,3.166
					l0.579,0.314c-0.612,0.848-1.319,1.706-1.98,2.603c-0.595,1.867-1.154,3.84-1.635,5.773c0.242,0.034,0.457,0.082,0.47,0.304
					c-0.122,0.863-0.734,1.898-1.208,3.032c-0.025,0.183-0.05,0.366-0.074,0.546c0.087,0.177,0.292,0.285,0.417,0.352
					c-0.195,0.433-0.457,1.153-0.691,1.716l-0.169,1.542c-0.02,0.47-0.019,0.911-0.025,1.366c-0.014,0.909-0.014,1.808,0.058,2.629
					c0.082,1.708,0.286,3.305,0.479,4.924c0.447,3.186,1.011,6.32,1.584,9.542c0.529,1.368,1.062,2.746,1.266,4.041
					c0.148,1.917-0.417,4.309-0.629,6.128c1.161-0.058,1.937,1.054,2.72,2.109c0.777,1.05,1.537,2.056,2.746,1.709
					c-0.155,1.256-0.471,3.15,0.155,3.339c1.875,0.583,4.11,1.742,4.45,5.926c-0.026,0.414-0.135,0.867-0.278,1.321
					c-0.072,0.227-0.153,0.454-0.236,0.677c-0.095,0.234-0.216,0.489-0.322,0.721c-0.435,0.939-0.822,1.715-0.747,2.096
					c0.079,0.225,0.237,0.272,0.436,0.23c0.199-0.044,0.471-0.304,0.731-0.527c0.526-0.465,1.057-0.969,1.179-0.347
					c1.344-3.467,1.829-6.23,2.219-8.92c0.395-2.706,0.543-5.204,0.675-7.703c0.233-4.956,0.2-9.701,0.512-14.345
					c-0.206-0.809-0.305-2.75-0.248-5.148c0.023-0.592,0.047-1.218,0.073-1.871c0.052-0.612,0.106-1.25,0.161-1.906
					c0.069-0.625,0.167-1.186,0.248-1.805c0.046-0.28,0.104-0.459,0.15-0.699l0.069-0.342l0.032-0.173l0.088-0.276
					c1.908-6.007,4.472-12.644,5.65-15.324l0.154-0.507c0.607-1.461,1.17-3.189,1.608-4.854c0.431-1.681,0.677-3.402,0.684-4.842
					c-0.123-1.36-0.434-2.835-0.689-4.234c-0.528,0.476-1.044,0.904-1.534,1.259c0.4-1.237,0.801-2.479,0.532-3.063
					c-0.298-2.95-1.793-1.662-3.554-1.065c-0.864,0.534-1.615-0.685-2.601,0.231c0.26-0.777,0.381-1.169,0.592-1.96
					c-0.31-0.124-0.36,0.509-0.473,1.068c-0.125,0.558-0.283,1.045-0.723,0.633c0.47-0.689,0.275-1.643,0.488-2.42
					c-0.463,0.034-0.702,0.691-0.926,1.3c-0.253,0.606-0.494,1.161-0.897,0.988c-0.042-0.235,0.409-0.702,0.719-1.169
					c0.3-0.468,0.485-0.934-0.025-1.137c-0.206-0.081-0.417,0.688-0.524,1.071c0.234-2.486-0.483-3.969-2.133-2.117
					c0.202-0.724,0.895-1.667,0.933-2.478l-0.019,0.002c-0.127,0.382-0.504,1.004-0.602,1.358l0.367-1.31
					c-0.166,0.039-0.332,0.086-0.498,0.138c-0.208,0.3-0.39,0.605-0.486,0.942l0.242-0.863c-0.397,0.145-0.791,0.321-1.167,0.523
					c-0.926,0.875-2.146,1.588-2.295,2.121C155.723,197.476,153.892,201.842,152.188,206.384z"/>
			</g>
		</g>
	</g>
	<g>
		<g>
			<g>
				<path fill="#202020" d="M175.547,214.092c0.18-0.362,0.121-0.837,0.557-0.837c1.294,0.183,1.602,1.825,2.874,2.055l0.374-0.542
					c0.731,0.694,1.477,1.447,2.218,2.214c1.688,0.813,3.4,1.568,5.089,2.344c0.081-0.229,0.173-0.43,0.377-0.41
					c0.759,0.241,1.563,0.983,2.444,1.649c0.158,0.056,0.315,0.112,0.47,0.168c0.182-0.052,0.333-0.227,0.426-0.334
					c0.41,0.29,0.752,0.582,1.06,0.864c1.316,0.473,2.604,1.003,3.947,1.505c1.323,0.525,2.63,1.105,3.992,1.672
					c1.326,0.604,2.657,1.247,4.038,1.903c1.357,0.728,2.788,1.454,4.169,2.249c1.352,0.469,2.777,0.922,3.841,1.652
					c0.737,0.593,1.494,1.368,2.13,2.22c0.639,0.852,1.253,1.712,1.816,2.423c0.793-0.854,2.104-0.586,3.408-0.332
					c1.302,0.244,2.587,0.482,3.226-0.594c0.729,1.104,1.801,2.766,2.404,2.486c1.813-0.849,4.251-1.233,7.245,1.433
					c0.95,1.163,1.298,3.535,1.893,3.805c0.943,0.434,0.318-2.316,1.259-1.891c-2.245-5.094-5.471-9.897-9.191-14.063
					c-3.72-4.188-7.775-7.708-11.678-11.124c-0.865-0.386-2.734-1.721-5.161-3.384c-2.437-1.657-5.444-3.684-8.594-5.582
					c-6.271-3.875-13.025-7.27-15.75-8.792l-0.524-0.216c-0.752-0.386-1.566-0.797-2.382-1.149c-0.81-0.35-1.664-0.685-2.543-0.988
					c-1.767-0.604-3.612-1.046-5.26-1.142c-1.565,0.048-3.199,0.236-4.875,0.519c0.617,0.538,1.169,1.054,1.576,1.569
					c-0.688-0.233-1.448-0.421-2.083-0.535c-0.673-0.091-1.216-0.107-1.563,0.059c-1.805,0.253-2.251,0.851-2.034,1.448
					c0.215,0.601,0.917,1.351,1.353,2.206c0.663,0.788-0.486,1.669,0.5,2.559c-0.774-0.184-1.163-0.243-1.929-0.333
					c-0.063,0.312,0.517,0.27,1.062,0.317c0.542,0.037,1.025,0.172,0.66,0.64c-0.694-0.397-1.55-0.076-2.226-0.125
					c0.125,0.456,0.673,0.531,1.24,0.703c0.546,0.132,1.083,0.353,0.938,0.756c-0.207,0.066-0.651-0.333-1.077-0.557
					c-0.443-0.258-0.843-0.325-0.918,0.21c-0.03,0.215,0.569,0.265,0.915,0.342c-0.536,0-0.925,0.147-1.244,0.283
					c-0.261,0.19-0.427,0.392-0.496,0.615c-0.177,0.48,0.149,0.998,0.53,1.569c-0.155,0.023-0.261-0.154-0.528-0.189
					c-0.242-0.071-0.485-0.051-0.652,0.091l0.008,0.016c0.199-0.049,0.564,0.07,0.736,0.069c-0.215,0.01-0.425,0.054-0.63,0.122
					c0.074,0.129,0.148,0.261,0.224,0.394c0.169,0.069,0.323,0.143,0.465,0.136c-0.121,0.01-0.244,0.016-0.36,0.055
					c0.172,0.303,0.334,0.616,0.473,0.917c0.116,0.149,0.206,0.342,0.226,0.549c0.056,0.207,0,0.365,0.095,0.558
					c0.136,0.368,0.177,0.604,0.339,0.652c0.46,0.167,1.251,0.456,2.094,0.815c0.843,0.351,1.774,0.77,2.747,1.234l3.037,1.476
					L175.547,214.092z"/>
			</g>
		</g>
	</g>
	<g>
		<g>
			<g>
				<path fill="#202020" d="M213.805,245.28c0.403-0.012,0.799-0.229,0.998,0.072c0.425,0.96-0.896,1.801-0.47,2.76l0.655,0.044
					c-0.243,0.769-0.585,1.559-0.862,2.368c0.152,1.467,0.348,2.916,0.6,4.354c0.237-0.044,0.456-0.066,0.547,0.075
					c0.187,0.597-0.011,1.441-0.074,2.298l0.117,0.377c0.143,0.096,0.371,0.117,0.513,0.131c-0.019,0.39-0.076,0.736-0.143,1.057
					c1.317,4.202,2.812,8.494,4.015,13.217c0.548,1.018,1.052,2.041,1.257,3.018c0.165,1.44-0.503,3.172-0.721,4.52
					c2.355,0.063,2.929,3.617,5.338,3.321c-0.186,0.951-0.514,2.371,0.092,2.57c1.855,0.599,3.978,1.762,4.456,4.836
					c-0.031,1.179-1.287,2.635-1.015,3.131c0.429,0.792,1.718-1.028,2.149-0.245c0.375-1.026,0.726-2.063,1.045-3.102
					c0.261-1.014,0.499-2.031,0.72-3.05c0.243-1.029,0.363-2.015,0.513-3.018c0.134-0.996,0.294-2.01,0.358-2.985
					c0.386-3.959,0.416-7.809,0.602-11.701c-0.227-0.672-0.413-2.274-0.537-4.374c-0.162-2.084-0.276-4.66-0.414-7.262
					c-0.254-5.215-0.48-10.577-0.352-12.768l-0.046-0.396c0.019-2.386-0.296-5.248-1.269-7.189c-0.588-0.89-1.288-1.771-1.967-2.662
					c-0.36,0.444-0.722,0.857-1.08,1.218c0.006-0.938,0.013-1.875-0.42-2.216c-1.069-1.94-2.177-0.773-3.712,0.067
					c-0.66,0.585-1.748-0.118-2.407,0.782c0.006-0.629,0.009-0.944,0.015-1.575c-0.659-0.043,0.418,1.921-0.67,1.532
					c0.221-0.615-0.208-1.275-0.198-1.908c-0.88,0.257-0.241,2.197-1.113,2.138c-0.219-0.33,1.106-1.82,0.019-1.898
					c-0.219-0.016-0.228,0.62-0.23,0.937c-0.412-1.931-1.491-2.977-2.605-1.139c0.008-0.624,0.434-1.52,0.259-2.171l-0.018,0.006
					c-0.023,0.329-0.226,0.903-0.229,1.207l0.014-1.122c-0.15,0.064-0.298,0.136-0.445,0.212c-0.123,0.283-0.22,0.568-0.224,0.86
					l0.009-0.746c-0.347,0.198-0.681,0.425-0.99,0.672c-0.666,0.913-1.659,1.811-1.666,2.294
					C213.875,237.707,213.707,241.528,213.805,245.28z"/>
			</g>
		</g>
	</g>
</g>
<g id="Layer_2" display="none">
</g>
</svg>
