<?xml version="1.0" encoding="utf-8"?>
<!-- Generator: Adobe Illustrator 16.0.0, SVG Export Plug-In . SVG Version: 6.00 Build 0)  -->
<!DOCTYPE svg PUBLIC "-//W3C//DTD SVG 1.1//EN" "http://www.w3.org/Graphics/SVG/1.1/DTD/svg11.dtd">
<svg version="1.1" id="Layer_1" xmlns="http://www.w3.org/2000/svg" xmlns:xlink="http://www.w3.org/1999/xlink" x="0px" y="0px"
	 width="452.605px" height="167.229px" viewBox="0 0 452.605 167.229" enable-background="new 0 0 452.605 167.229"
	 xml:space="preserve">
<g>
	<g>
		<path d="M0.167,44.429c3.47,17.475,17.175,29.322,35.099,29.312c16.293-0.01,32.438-9.708,40.438-23.792
			c4.454-7.841,5.678-16.759,4.485-25.59c-1.231-9.111-7.344-20.385-17.589-20.979C51.286,2.723,44.555,13.52,41.749,22.982
			c-2.892,9.753-2.898,20.437-3.486,30.524c-1.876,32.19,3.374,64.753-3.256,96.612c4.821,0,9.643,0,14.464,0
			c-2.944-13.161-2.152-26.595-0.544-39.886c1.686-13.933,3.986-27.792,5.703-41.728c1.511-12.263,3.625-24.466,7.699-36.163
			c1.382-3.968,3.215-8.112,5.818-11.443c1.74-2.227,5.608-6.296,8.9-5.825c3.624,0.519,5.053,6.301,5.991,9.123
			c1.922,5.783,3.073,11.857,3.76,17.902c1.44,12.66,0.914,25.505,0.206,38.194c-1.444,25.895-2.067,52.378-8.771,77.568
			c4.821,0,9.643,0,14.464,0c-5.953-29.455,0.506-59.829,9.55-87.954c3.892-12.104,7.779-25.667,15.868-35.74
			c2.586-3.221,5.599-6.714,9.72-4.232c4.639,2.794,4.907,11.053,5.352,15.667c2.825,29.361-9.414,57.857-8.734,87.212
			c0.276,11.913,2.483,26.767,15.196,31.566c11.881,4.485,23.104-4.34,29.916-13.242c9.162-11.975,11.45-29.604,9.853-44.187
			c-0.445-4.063-3.075-7.5-7.5-7.5c-3.751,0-7.946,3.428-7.5,7.5c1.189,10.856,0.16,22.268-4.94,32.076
			c-3.26,6.27-13.115,17.23-18.162,7.156c-2.593-5.176-1.954-13.008-1.895-18.602c0.08-7.521,1.07-15.004,2.266-22.415
			c2.357-14.604,5.537-29.062,6.588-43.85c0.9-12.665,1.011-29.719-7.804-39.892c-8.717-10.059-21.883-9.154-30.923-0.145
			c-9.398,9.365-14.136,22.655-18.454,34.888c-4.951,14.024-9.137,28.295-11.999,42.897c-4.064,20.738-5.064,41.99-0.862,62.782
			c1.504,7.443,12.628,6.899,14.464,0c7.602-28.563,8.303-59.038,9.658-88.424c0.671-14.548,0.377-29.12-2.353-43.463
			C97.84,18.601,93.625,4.043,81.034,0.61C69.091-2.647,58.233,7.751,52.817,17.098c-6.276,10.833-9.036,23.992-11.071,36.177
			c-2.621,15.693-4.214,31.588-6.517,47.334c-2.338,15.993-3.752,31.765-1.347,47.835c0.285,1.904,0.703,3.784,1.123,5.662
			c1.592,7.117,12.957,7.244,14.464,0c6.527-31.365,2.665-63.191,3.551-94.912c0.286-10.233,0.471-21.078,2.883-31.069
			c0.746-3.089,1.913-7.255,4.684-9.192c0.924-0.646,1.382-0.348,0.711-0.871c1.388,1.082,2.28,2.787,2.906,4.398
			c5.359,13.815-3.683,27.257-16.547,33.458c-11.867,5.721-25.526,3.364-31.325-9.151c-0.892-1.925-1.29-4.253-1.701-6.326
			C12.748,30.958-1.708,34.983,0.167,44.429L0.167,44.429z"/>
	</g>
</g>
<g>
	<g>
		<path d="M190.601,94.608c4.739,7.287,11.301,14.849,20.348,16.393c7.517,1.283,14.542-1.519,19.798-6.925
			c10.143-10.431,12.368-28.344,2.687-39.676c-5.37-6.285-15.103-8.658-22.986-7.322c-8.021,1.36-13.352,7.532-16.349,14.692
			c-5.955,14.227-3.94,32.271-0.735,46.93c4.343,19.863,19.713,39.71,41.861,38.365c21.291-1.293,31.158-23.8,34.94-41.911
			c1.137-5.442,2.169-10.888,3.561-16.274c0.946-3.662,2.056-7.281,3.389-10.821c0.383-1.017,0.967-2.255,1.688-3.618
			c0.348-0.659,0.747-1.289,1.149-1.916c1.184-1.842-0.892,0.933,0.453-0.542c1.271-1.393-1.239,0.696,0.213-0.215
			c-1.198,0.751,0.094,0.367-1.477,0.411c-0.405,0.011-2.632-0.949-1.319-0.18c-0.958-0.561-0.029,0.07,0.466,0.9
			c2.227,3.735,1.662,9.603,2.142,13.774c1.514,13.148,2.489,26.459,8.235,38.579c1.423,3.002,5.442,4.28,8.47,3.447
			c4.322-1.189,5.801-5.18,5.238-9.227c-1.758-12.646-2.524-25.812-0.593-38.482c1.003-6.583,3.339-16.637,9.537-19.164
			c1.84-0.75,1.914-0.959,2.665,0.09c2.476,3.458,2.386,8.497,2.425,12.541c0.113,11.521-2.325,22.897-1.574,34.442
			c0.599,9.212,3.931,23.534,14.285,26.502c9.002,2.579,15.842-4.462,20.55-11.159c5.609-7.981,8.396-17.717,11.027-26.974
			c3.929-13.82,6.757-27.919,11.355-41.55c-4.911-0.665-9.821-1.329-14.732-1.994c-0.127,14.579-3.535,29.095-4.121,43.693
			c-0.574,14.325-0.087,34.493,14.029,42.672c6.559,3.8,15.252,3.539,21.674-0.351c6.602-3.999,10.188-11.367,12.579-18.403
			c5.317-15.649,5.226-33.471,4.843-49.812c-0.094-4-0.28-7.996-0.456-11.993c-0.424-9.621-15.269-9.699-15,0
			c0.67,24.227-6.393,49.606,6.768,71.831c5.552,9.375,14.685,17.255,25.112,20.545c11.62,3.667,22.104-2.341,28.548-11.816
			c5.457-8.023-7.547-15.518-12.951-7.57c-10.117,14.876-27.089-4.87-30.969-15.243c-6.796-18.171-0.987-38.927-1.508-57.746
			c-5,0-10,0-15,0c0.609,13.853,0.958,27.724-0.486,41.541c-0.701,6.71-2.252,14.629-4.855,20.046c-0.676,1.404-1.498,2.729-2.395,4
			c0.778-1.103-2.587,2.295-1.244,1.294c-0.537,0.399-1.126,0.72-1.713,1.036c1.388-0.748-0.42,0.109-0.705,0.193
			c-2.034,0.593,1.432-0.012-0.759,0.149c-0.337,0.024-3.085-0.231-1.756-0.008c-0.707-0.119-1.392-0.34-2.07-0.563
			c1.439,0.473-0.458-0.298-0.669-0.42c-1.799-1.043,0.94,0.926-0.615-0.458c-0.511-0.454-0.955-0.979-1.397-1.498
			c0.979,1.148-0.37-0.709-0.436-0.817c-0.388-0.638-0.706-1.313-1.026-1.985c0.581,1.218-0.396-1.167-0.387-1.138
			c-0.271-0.784-0.483-1.587-0.699-2.388c-1.876-6.979-1.716-14.629-1.414-22.147c0.571-14.25,3.955-28.407,4.079-42.643
			c0.076-8.756-12.09-9.828-14.732-1.994c-4.396,13.031-7.267,26.484-10.855,39.745c-2.615,9.666-4.612,18.481-10.755,26.245
			c-0.744,0.94-1.958,2.311-2.694,2.842c-1.44,1.039,0.379,0.146-1.176,0.57c0.76-0.207,1.439-0.192,2.112,0.354
			c-3.247-2.632-4.026-8.741-4.384-12.588c-1.112-11.959,1.676-23.962,1.56-35.93c-0.089-9.082-2.233-19.87-10.815-24.709
			c-7.752-4.371-16.628-0.527-22.569,4.981c-8.111,7.52-10.071,18.831-11.461,29.252c-1.814,13.606-0.519,27.449,1.361,40.967
			c4.569-1.927,9.139-3.854,13.708-5.779c-5.278-11.134-5.72-24.951-6.736-37.06c-0.842-10.024-3.875-22.333-15.74-23.444
			c-7.553-0.707-12.563,7.592-15.071,13.444c-3.147,7.343-5.154,15.055-6.828,22.85c-2.801,13.045-5.358,34.061-20.548,38.284
			c-11.289,3.14-20.212-6.815-24.888-15.66c-3.196-6.045-4.483-12.877-5.445-19.582c-1.271-8.866-1.673-22.117,1.772-29.685
			c1.156-2.54,1.533-2.909,3.15-4.349c-1.339,1.192,1.953-0.899,0.29-0.207c0.452-0.173,0.913-0.32,1.382-0.44
			c2.088-0.6-1.236-0.021,1.062-0.163c1.896-0.117,4.597,0.521,5.548,0.954c0.277,0.126,2.595,1.586,1.701,0.883
			c0.457,0.36,2.333,2.582,1.678,1.648c1.765,2.52,2.067,6.05,1.629,8.656c-0.164,0.978-0.424,1.936-0.696,2.888
			c-0.438,1.535-0.591,1.771-0.865,2.352c-0.417,0.884-0.918,1.725-1.432,2.555c-0.986,1.596-0.202,0.499-1.442,1.863
			c-0.195,0.214-2.246,2.036-1.04,1.11c-0.386,0.296-3.103,1.785-1.663,1.178c-0.802,0.338-1.652,0.539-2.501,0.713
			c2.076-0.427-2.577-0.374-0.688-0.051c-1.977-0.337-2.843-0.742-4.546-2.131c-2.495-2.034-4.409-4.574-6.149-7.251
			C198.302,78.963,185.31,86.473,190.601,94.608L190.601,94.608z"/>
	</g>
</g>
</svg>
